<?xml version="1.0" encoding="utf-8"?>
<!-- Generator: Adobe Illustrator 21.1.0, SVG Export Plug-In . SVG Version: 6.00 Build 0)  -->
<svg version="1.1" id="Layer_1" xmlns="http://www.w3.org/2000/svg" xmlns:xlink="http://www.w3.org/1999/xlink" x="0px" y="0px"
	 viewBox="0 0 100 100" style="enable-background:new 0 0 100 100;" xml:space="preserve">
<style type="text/css">
	.st0{fill:#232323;}
</style>
<g id="Layer_3">
</g>
<g id="Layer_1_1_">
	<path id="twitter" class="st0" d="M76.8,31.3c-2.1,0.9-4.3,1.5-6.6,1.8c2.4-1.4,4.2-3.7,5.1-6.4C73.1,28,70.6,29,68,29.5
		c-2.1-2.3-5.1-3.7-8.4-3.7c-6.3,0-11.5,5.2-11.5,11.6c0,0.9,0.1,1.8,0.3,2.7c-9.5-0.5-18-5.1-23.7-12.1c-1,1.7-1.6,3.7-1.6,5.8
		c0,4,2,7.6,5.1,9.7c-1.9-0.1-3.7-0.6-5.2-1.5v0.1c0,5.6,4,10.3,9.2,11.4c-1,0.3-2,0.4-3,0.4c-0.7,0-1.5-0.1-2.2-0.2
		c1.5,4.6,5.7,8,10.7,8.1c-3.9,3.1-8.9,5-14.3,5c-0.9,0-1.8-0.1-2.7-0.2c5.1,3.3,11.1,5.2,17.6,5.2C59.4,71.8,71,54.1,71,38.7
		c0-0.5,0-1,0-1.5C73.4,35.7,75.3,33.7,76.8,31.3z"/>
</g>
</svg>
